ply
format ascii 1.0
element vertex 792
property float x
property float y
property float z
element face 720
property list uchar int vertex_index
end_header
1 198.27 33.3802
34.59 191.423 31.3263
64.4 179.933 27.8793
90.19 164.443 23.2323
111.72 145.597 17.5784
128.75 124.038 11.1108
141.04 100.411 4.02249
148.35 75.3579 -3.49338
150.44 49.5234 -11.2437
147.07 23.551 -19.0355
138 -1.91565 -26.6755
0.996195 198.295 33.2968
34.4584 192.29 28.4387
64.1549 181.546 22.5031
89.8468 166.702 15.7032
111.295 148.395 8.25202
128.26 127.263 0.362728
140.503 103.943 -7.75154
147.785 79.0732 -15.8777
149.868 53.2911 -23.8025
146.51 27.2343 -31.3129
137.475 1.54042 -38.1957
0.984808 198.32 33.2139
34.0645 193.149 25.5731
63.4216 183.147 17.1679
88.8198 168.944 8.23144
110.023 151.172 -1.00339
126.794 130.463 -10.3035
138.897 107.448 -19.436
146.096 82.7602 -28.1677
148.154 57.03 -36.2656
144.836 30.8894 -43.4968
135.903 4.97019 -49.6283
0.965926 198.344 33.1323
33.4114 193.996 22.7513
62.2056 184.723 11.9143
87.1169 171.151 0.873836
107.913 153.906 -10.1174
124.363 133.614 -20.8068
136.234 110.9 -30.9418
143.295 86.3909 -40.2699
145.314 60.7118 -48.5384
142.059 34.4888 -55.4946
133.298 8.34756 -60.8862
0.939693 198.368 33.0527
32.504 194.823 19.9947
60.5162 186.263 6.78208
84.7509 173.307 -6.3136
104.982 156.577 -19.0206
120.985 136.692 -31.0672
132.534 114.272 -42.1816
139.403 89.9376 -52.0922
141.367 64.3085 -60.5273
138.201 38.0049 -67.215
129.678 11.6468 -71.8837
0.906308 198.391 32.9755
31.3492 195.624 17.3244
58.3662 187.754 1.81047
81.7399 175.396 -13.2762
101.253 159.164 -27.6453
116.687 139.674 -41.0066
127.826 117.539 -53.0698
134.451 93.3733 -63.5447
136.345 67.7926 -72.1411
133.291 41.411 -78.5686
125.07 14.8429 -82.5372
0.866025 198.414 32.9013
29.9558 196.393 14.7607
55.772 189.186 -2.96275
78.1068 177.401 -19.9609
96.7524 161.649 -35.9258
111.501 142.537 -50.5493
122.144 120.675 -63.5234
128.475 96.672 -74.5401
130.285 71.1378 -83.2914
127.366 44.6812 -89.4692
119.512 17.9114 -92.7655
0.819152 198.435 32.8309
28.3345 197.124 12.323
52.7534 190.548 -7.50124
73.8793 179.308 -26.3169
91.5157 164.01 -43.7991
105.466 145.259 -59.6227
115.533 123.656 -73.463
121.521 99.8084 -84.9949
123.233 74.3184 -93.8934
120.473 47.7905 -99.8337
113.043 20.829 -102.491
0.766044 198.455 32.7646
26.4975 197.812 10.03
49.3333 191.828 -11.7705
69.0895 181.102 -32.2958
85.5825 166.232 -51.2052
98.6282 147.819 -68.1579
108.043 126.461 -82.8129
113.643 102.759 -94.8293
115.244 77.3103 -103.866
112.662 50.7154 -109.583
105.714 23.5735 -111.639
0.707107 198.473 32.703
24.4588 198.452 7.89898
45.5377 193.019 -15.7379
63.774 182.769 -37.8521
78.998 168.297 -58.0879
91.04 150.199 -76.0897
99.7303 129.068 -91.5018
104.899 105.501 -103.969
106.377 80.0907 -113.135
103.994 53.4335 -118.644
97.5807 26.124 -120.141
0.642788 198.49 32.6465
22.234 199.037 5.9463
41.3955 194.109 -19.3734
57.973 184.296 -42.9435
71.8122 170.189 -64.3947
82.7589 152.379 -83.3579
90.6588 131.457 -99.4638
95.3575 108.013 -112.343
96.701 82.6385 -121.627
94.5348 55.9243 -126.946
88.7047 28.4611 -127.931
0.573576 198.505 32.5956
19.84 199.565 4.18679
36.9383 195.092 -22.6493
51.7309 185.673 -47.5313
64.08 171.894 -70.0777
73.848 154.344 -89.9072
80.8972 133.609 -106.638
85.0901 110.277 -119.89
86.2888 84.9343 -129.28
84.3559 58.1686 -134.427
79.1535 30.567 -134.951
0.5 198.519 32.5507
17.295 200.031 2.63381
32.2 195.959 -25.5407
45.095 186.887 -51.5805
55.86 173.399 -75.0935
64.375 156.078 -95.6876
70.52 135.509 -112.97
74.175 112.275 -126.55
75.22 86.9605 -136.034
73.535 60.1495 -141.03
69 32.4257 -141.147
0.422618 198.53 32.5122
14.6184 200.432 1.29921
27.2166 196.705 -28.0254
38.1159 187.931 -55.0604
47.2149 174.692 -79.4041
54.4121 157.568 -100.655
59.6061 137.141 -118.412
62.6954 113.992 -132.274
63.5787 88.7019 -141.839
62.1545 61.8518 -146.705
58.3213 34.0231 -146.471
0.34202 198.54 32.4802
11.8305 200.763 0.19313
22.0261 197.323 -30.0848
30.8468 188.796 -57.9443
38.2105 175.764 -82.9765
44.0351 158.803 -104.772
48.2385 138.494 -122.922
50.7387 115.415 -137.018
51.4535 90.1451 -146.649
50.3009 63.2627 -151.408
47.1988 35.3469 -150.884
0.258819 198.548 32.4551
8.95255 201.024 -0.676006
16.6679 197.808 -31.7029
23.3429 189.476 -60.2105
28.9153 176.606 -85.7837
33.323 159.774 -108.007
36.5038 139.557 -126.466
38.3958 116.533 -140.745
38.9367 91.2791 -150.429
38.0645 64.3713 -155.103
35.717 36.3872 -154.352
0.173648 198.553 32.437
6.00649 201.212 -1.30159
11.1829 198.157 -32.8676
15.6613 189.966 -61.8417
19.4 177.212 -87.8042
22.3572 160.472 -110.336
24.4913 140.323 -129.017
25.7607 117.338 -143.428
26.1236 92.0953 -153.15
25.5384 65.1693 -157.763
23.9634 37.1359 -156.847
0.0871557 198.556 32.4261
3.01472 201.325 -1.67885
5.61283 198.368 -33.57
7.86058 190.261 -62.8254
9.73704 177.578 -89.0227
11.2213 160.894 -111.74
12.2924 140.784 -130.555
12.9296 117.824 -145.046
13.1117 92.5876 -154.791
12.818 65.6505 -159.367
12.0275 37.5875 -158.352
6.12323e-17 198.557 32.4224
2.11803e-15 201.363 -1.80493
3.94336e-15 198.439 -33.8048
5.52255e-15 190.359 -63.1541
6.84088e-15 177.7 -89.4299
7.88366e-15 161.035 -112.209
8.63621e-15 140.938 -131.069
9.08382e-15 117.986 -145.587
9.21179e-15 92.7521 -155.339
9.00544e-15 65.8113 -159.903
8.45006e-15 37.7384 -158.855
-0.0871557 198.556 32.4261
-3.01472 201.325 -1.67885
-5.61283 198.368 -33.57
-7.86058 190.261 -62.8254
-9.73704 177.578 -89.0227
-11.2213 160.894 -111.74
-12.2924 140.784 -130.555
-12.9296 117.824 -145.046
-13.1117 92.5876 -154.791
-12.818 65.6505 -159.367
-12.0275 37.5875 -158.352
-0.173648 198.553 32.437
-6.00649 201.212 -1.30159
-11.1829 198.157 -32.8676
-15.6613 189.966 -61.8417
-19.4 177.212 -87.8042
-22.3572 160.472 -110.336
-24.4913 140.323 -129.017
-25.7607 117.338 -143.428
-26.1236 92.0953 -153.15
-25.5384 65.1693 -157.763
-23.9634 37.1359 -156.847
-0.258819 198.548 32.4551
-8.95255 201.024 -0.676006
-16.6679 197.808 -31.7029
-23.3429 189.476 -60.2105
-28.9153 176.606 -85.7837
-33.323 159.774 -108.007
-36.5038 139.557 -126.466
-38.3958 116.533 -140.745
-38.9367 91.2791 -150.429
-38.0645 64.3713 -155.103
-35.717 36.3872 -154.352
-0.34202 198.54 32.4802
-11.8305 200.763 0.19313
-22.0261 197.323 -30.0848
-30.8468 188.796 -57.9443
-38.2105 175.764 -82.9765
-44.0351 158.803 -104.772
-48.2385 138.494 -122.922
-50.7387 115.415 -137.018
-51.4535 90.1451 -146.649
-50.3009 63.2627 -151.408
-47.1988 35.3469 -150.884
-0.422618 198.53 32.5122
-14.6184 200.432 1.29921
-27.2166 196.705 -28.0254
-38.1159 187.931 -55.0604
-47.2149 174.692 -79.4041
-54.4121 157.568 -100.655
-59.6061 137.141 -118.412
-62.6954 113.992 -132.274
-63.5787 88.7019 -141.839
-62.1545 61.8518 -146.705
-58.3213 34.0231 -146.471
-0.5 198.519 32.5507
-17.295 200.031 2.63381
-32.2 195.959 -25.5407
-45.095 186.887 -51.5805
-55.86 173.399 -75.0935
-64.375 156.078 -95.6876
-70.52 135.509 -112.97
-74.175 112.275 -126.55
-75.22 86.9605 -136.034
-73.535 60.1495 -141.03
-69 32.4257 -141.147
-0.573576 198.505 32.5956
-19.84 199.565 4.18679
-36.9383 195.092 -22.6493
-51.7309 185.673 -47.5313
-64.08 171.894 -70.0777
-73.848 154.344 -89.9072
-80.8972 133.609 -106.638
-85.0901 110.277 -119.89
-86.2888 84.9343 -129.28
-84.3559 58.1686 -134.427
-79.1535 30.567 -134.951
-0.642788 198.49 32.6465
-22.234 199.037 5.9463
-41.3955 194.109 -19.3734
-57.973 184.296 -42.9435
-71.8122 170.189 -64.3947
-82.7589 152.379 -83.3579
-90.6588 131.457 -99.4638
-95.3575 108.013 -112.343
-96.701 82.6385 -121.627
-94.5348 55.9243 -126.946
-88.7047 28.4611 -127.931
-0.707107 198.473 32.703
-24.4588 198.452 7.89898
-45.5377 193.019 -15.7379
-63.774 182.769 -37.8521
-78.998 168.297 -58.0879
-91.04 150.199 -76.0897
-99.7303 129.068 -91.5018
-104.899 105.501 -103.969
-106.377 80.0907 -113.135
-103.994 53.4335 -118.644
-97.5807 26.124 -120.141
-0.766044 198.455 32.7646
-26.4975 197.812 10.03
-49.3333 191.828 -11.7705
-69.0895 181.102 -32.2958
-85.5825 166.232 -51.2052
-98.6282 147.819 -68.1579
-108.043 126.461 -82.8129
-113.643 102.759 -94.8293
-115.244 77.3103 -103.866
-112.662 50.7154 -109.583
-105.714 23.5735 -111.639
-0.819152 198.435 32.8309
-28.3345 197.124 12.323
-52.7534 190.548 -7.50124
-73.8793 179.308 -26.3169
-91.5157 164.01 -43.7991
-105.466 145.259 -59.6227
-115.533 123.656 -73.463
-121.521 99.8084 -84.9949
-123.233 74.3184 -93.8934
-120.473 47.7905 -99.8337
-113.043 20.829 -102.491
-0.866025 198.414 32.9013
-29.9558 196.393 14.7607
-55.772 189.186 -2.96275
-78.1068 177.401 -19.9609
-96.7524 161.649 -35.9258
-111.501 142.537 -50.5493
-122.144 120.675 -63.5234
-128.475 96.672 -74.5401
-130.285 71.1378 -83.2914
-127.366 44.6812 -89.4692
-119.512 17.9114 -92.7655
-0.906308 198.391 32.9755
-31.3492 195.624 17.3244
-58.3662 187.754 1.81047
-81.7399 175.396 -13.2762
-101.253 159.164 -27.6453
-116.687 139.674 -41.0066
-127.826 117.539 -53.0698
-134.451 93.3733 -63.5447
-136.345 67.7926 -72.1411
-133.291 41.411 -78.5686
-125.07 14.8429 -82.5372
-0.939693 198.368 33.0527
-32.504 194.823 19.9947
-60.5162 186.263 6.78208
-84.7509 173.307 -6.3136
-104.982 156.577 -19.0206
-120.985 136.692 -31.0672
-132.534 114.272 -42.1816
-139.403 89.9376 -52.0922
-141.367 64.3085 -60.5273
-138.201 38.0049 -67.215
-129.678 11.6468 -71.8837
-0.965926 198.344 33.1323
-33.4114 193.996 22.7513
-62.2056 184.723 11.9143
-87.1169 171.151 0.873836
-107.913 153.906 -10.1174
-124.363 133.614 -20.8068
-136.234 110.9 -30.9418
-143.295 86.3909 -40.2699
-145.314 60.7118 -48.5384
-142.059 34.4888 -55.4946
-133.298 8.34756 -60.8862
-0.984808 198.32 33.2139
-34.0645 193.149 25.5731
-63.4216 183.147 17.1679
-88.8198 168.944 8.23144
-110.023 151.172 -1.00339
-126.794 130.463 -10.3035
-138.897 107.448 -19.436
-146.096 82.7602 -28.1677
-148.154 57.03 -36.2656
-144.836 30.8894 -43.4968
-135.903 4.97019 -49.6283
-0.996195 198.295 33.2968
-34.4584 192.29 28.4387
-64.1549 181.546 22.5031
-89.8468 166.702 15.7032
-111.295 148.395 8.25202
-128.26 127.263 0.362728
-140.503 103.943 -7.75154
-147.785 79.0732 -15.8777
-149.868 53.2911 -23.8025
-146.51 27.2343 -31.3129
-137.475 1.54042 -38.1957
-1 198.27 33.3802
-34.59 191.423 31.3263
-64.4 179.933 27.8793
-90.19 164.443 23.2323
-111.72 145.597 17.5784
-128.75 124.038 11.1108
-141.04 100.411 4.02249
-148.35 75.3579 -3.49338
-150.44 49.5234 -11.2437
-147.07 23.551 -19.0355
-138 -1.91565 -26.6755
-0.996195 198.245 33.4637
-34.4584 190.557 34.2139
-64.1549 178.321 33.2554
-89.8468 162.185 30.7613
-111.295 142.799 26.9048
-128.26 120.814 21.8588
-140.503 96.8786 15.7965
-147.785 71.6427 8.89088
-149.868 45.7558 1.31501
-146.51 19.8678 -6.75804
-137.475 -5.37173 -15.1552
-0.984808 198.22 33.5466
-34.0645 189.698 37.0795
-63.4216 176.72 38.5906
-88.8198 159.943 38.2331
-110.023 140.023 36.1602
-126.794 117.614 32.5251
-138.897 93.3733 27.4809
-146.096 67.9557 21.1809
-148.154 42.0169 13.7782
-144.836 16.2126 5.42593
-135.903 -8.8015 -3.72264
-0.965926 198.196 33.6282
-33.4114 188.851 39.9013
-62.2056 175.144 43.8443
-87.1169 157.736 45.5907
-107.913 137.289 45.2742
-124.363 114.463 43.0284
-136.234 89.9215 38.9868
-143.295 64.325 33.2831
-145.314 38.3351 26.0509
-142.059 12.6133 17.4237
-133.298 -12.1789 7.53525
-0.939693 198.172 33.7078
-32.504 188.024 42.6578
-60.5162 173.604 48.9764
-84.7509 155.58 52.7781
-104.982 134.618 54.1774
-120.985 111.385 53.2888
-132.534 86.5496 50.2266
-139.403 60.7783 45.1055
-141.367 34.7384 38.0398
-138.201 9.09717 29.1441
-129.678 -15.4781 18.5328
-0.906308 198.149 33.785
-31.3492 187.223 45.3281
-58.3662 172.113 53.948
-81.7399 153.491 59.7407
-101.253 132.03 62.8021
-116.687 108.403 63.2281
-127.826 83.2832 61.1148
-134.451 57.3425 56.5579
-136.345 31.2542 49.6536
-133.291 5.69108 40.4977
-125.07 -18.6742 29.1862
-0.866025 198.126 33.8592
-29.9558 186.454 47.8919
-55.772 170.681 58.7213
-78.1068 151.485 66.4254
-96.7524 129.546 71.0826
-111.501 105.54 72.7709
-122.144 80.1471 71.5684
-128.475 54.0439 67.5534
-130.285 27.9091 60.804
-127.366 2.42091 51.3983
-119.512 -21.7427 39.4146
-0.819152 198.105 33.9296
-28.3345 185.723 50.3296
-52.7534 169.319 63.2598
-73.8793 149.579 72.7814
-91.5157 127.184 78.9559
-105.466 102.818 81.8443
-115.533 77.1652 81.508
-121.521 50.9075 78.0081
-123.233 24.7285 71.406
-120.473 -0.688454 61.7628
-113.043 -24.6603 49.1399
-0.766044 198.085 33.9959
-26.4975 185.035 52.6226
-49.3333 168.038 67.529
-69.0895 147.785 78.7603
-85.5825 124.962 86.3621
-98.6282 100.258 90.3794
-108.043 74.3602 90.8578
-113.643 47.9571 87.8426
-115.244 21.7366 81.379
-112.662 -3.61334 71.5124
-105.714 -27.4048 58.2882
-0.707107 198.067 34.0575
-24.4588 184.395 54.7536
-45.5377 166.848 71.4964
-63.774 146.118 84.3166
-78.998 122.897 93.2447
-91.04 97.8783 98.3113
-99.7303 71.7535 99.5468
-104.899 45.2154 96.9819
-106.377 18.9562 90.6471
-103.994 -6.33148 80.5729
-97.5807 -29.9553 66.7899
-0.642788 198.05 34.114
-22.234 183.809 56.7063
-41.3955 165.758 75.132
-57.973 144.591 89.4081
-71.8122 121.005 99.5516
-82.7589 95.6979 105.579
-90.6588 69.3649 107.509
-95.3575 42.7029 105.357
-96.701 16.4084 99.1397
-94.5348 -8.8222 88.8753
-88.7047 -32.2924 74.5803
-0.573576 198.035 34.1649
-19.84 183.282 58.4658
-36.9383 164.775 78.4078
-51.7309 143.214 93.9958
-64.08 119.3 105.235
-73.848 93.7331 112.129
-80.8972 67.2126 114.683
-85.0901 40.4391 112.903
-86.2888 14.1126 106.792
-84.3559 -11.0665 96.3565
-79.1535 -34.3983 81.6001
-0.5 198.021 34.2097
-17.295 182.816 60.0188
-32.2 163.907 81.2992
-45.095 142 98.045
-55.86 117.796 110.25
-64.375 91.999 117.909
-70.52 65.313 121.015
-74.175 38.441 119.563
-75.22 12.0864 113.547
-73.535 -13.0474 102.959
-69 -36.257 87.7958
-0.422618 198.01 34.2483
-14.6184 182.415 61.3534
-27.2166 163.162 83.784
-38.1159 140.956 101.525
-47.2149 116.503 114.561
-54.4121 90.5087 122.877
-59.6061 63.6804 126.457
-62.6954 36.7238 125.287
-63.5787 10.345 119.351
-62.1545 -14.7498 108.634
-58.3213 -37.8544 93.1203
-0.34202 198 34.2803
-11.8305 182.084 62.4594
-22.0261 162.544 85.8433
-30.8468 140.09 104.409
-38.2105 115.431 118.133
-44.0351 89.2736 126.994
-48.2385 62.3274 130.967
-50.7387 35.3007 130.031
-51.4535 8.90184 124.162
-50.3009 -16.1606 113.337
-47.1988 -39.1782 97.5331
-0.258819 197.992 34.3054
-8.95255 181.823 63.3286
-16.6679 162.059 87.4614
-23.3429 139.411 106.675
-28.9153 114.589 120.941
-33.323 88.3031 130.229
-36.5038 61.2642 134.511
-38.3958 34.1824 133.758
-38.9367 7.76781 127.942
-38.0645 -17.2692 117.032
-35.717 -40.2185 101.001
-0.173648 197.987 34.3235
-6.00649 181.635 63.9542
-11.1829 161.709 88.6261
-15.6613 138.921 108.306
-19.4 113.982 122.961
-22.3572 87.6045 132.557
-24.4913 60.499 137.062
-25.7607 33.3775 136.441
-26.1236 6.95158 130.663
-25.5384 -18.0672 119.692
-23.9634 -40.9672 103.496
-0.0871557 197.984 34.3344
-3.01472 181.522 64.3314
-5.61283 161.499 89.3285
-7.86058 138.626 109.29
-9.73704 113.617 124.18
-11.2213 87.1832 133.962
-12.2924 60.0375 138.6
-12.9296 32.8921 138.059
-13.1117 6.45933 132.303
-12.818 -18.5484 121.296
-12.0275 -41.4188 105.002
-1.83697e-16 197.983 34.3381
-6.35408e-15 181.484 64.4575
-1.18301e-14 161.428 89.5633
-1.65676e-14 138.528 109.619
-2.05226e-14 113.495 124.587
-2.3651e-14 87.0425 134.431
-2.59086e-14 59.8833 139.114
-2.72515e-14 32.7299 138.6
-2.76354e-14 6.29483 132.852
-2.70163e-14 -18.7092 121.832
-2.53502e-14 -41.5697 105.505
0.0871557 197.984 34.3344
3.01472 181.522 64.3314
5.61283 161.499 89.3285
7.86058 138.626 109.29
9.73704 113.617 124.18
11.2213 87.1832 133.962
12.2924 60.0375 138.6
12.9296 32.8921 138.059
13.1117 6.45933 132.303
12.818 -18.5484 121.296
12.0275 -41.4188 105.002
0.173648 197.987 34.3235
6.00649 181.635 63.9542
11.1829 161.709 88.6261
15.6613 138.921 108.306
19.4 113.982 122.961
22.3572 87.6045 132.557
24.4913 60.499 137.062
25.7607 33.3775 136.441
26.1236 6.95158 130.663
25.5384 -18.0672 119.692
23.9634 -40.9672 103.496
0.258819 197.992 34.3054
8.95255 181.823 63.3286
16.6679 162.059 87.4614
23.3429 139.411 106.675
28.9153 114.589 120.941
33.323 88.3031 130.229
36.5038 61.2642 134.511
38.3958 34.1824 133.758
38.9367 7.76781 127.942
38.0645 -17.2692 117.032
35.717 -40.2185 101.001
0.34202 198 34.2803
11.8305 182.084 62.4594
22.0261 162.544 85.8433
30.8468 140.09 104.409
38.2105 115.431 118.133
44.0351 89.2736 126.994
48.2385 62.3274 130.967
50.7387 35.3007 130.031
51.4535 8.90184 124.162
50.3009 -16.1606 113.337
47.1988 -39.1782 97.5331
0.422618 198.01 34.2483
14.6184 182.415 61.3534
27.2166 163.162 83.784
38.1159 140.956 101.525
47.2149 116.503 114.561
54.4121 90.5087 122.877
59.6061 63.6804 126.457
62.6954 36.7238 125.287
63.5787 10.345 119.351
62.1545 -14.7498 108.634
58.3213 -37.8544 93.1203
0.5 198.021 34.2097
17.295 182.816 60.0188
32.2 163.907 81.2992
45.095 142 98.045
55.86 117.796 110.25
64.375 91.999 117.909
70.52 65.313 121.015
74.175 38.441 119.563
75.22 12.0864 113.547
73.535 -13.0474 102.959
69 -36.257 87.7958
0.573576 198.035 34.1649
19.84 183.282 58.4658
36.9383 164.775 78.4078
51.7309 143.214 93.9958
64.08 119.3 105.235
73.848 93.7331 112.129
80.8972 67.2126 114.683
85.0901 40.4391 112.903
86.2888 14.1126 106.792
84.3559 -11.0665 96.3565
79.1535 -34.3983 81.6001
0.642788 198.05 34.114
22.234 183.809 56.7063
41.3955 165.758 75.132
57.973 144.591 89.4081
71.8122 121.005 99.5516
82.7589 95.6979 105.579
90.6588 69.3649 107.509
95.3575 42.7029 105.357
96.701 16.4084 99.1397
94.5348 -8.8222 88.8753
88.7047 -32.2924 74.5803
0.707107 198.067 34.0575
24.4588 184.395 54.7536
45.5377 166.848 71.4964
63.774 146.118 84.3166
78.998 122.897 93.2447
91.04 97.8783 98.3113
99.7303 71.7535 99.5468
104.899 45.2154 96.9819
106.377 18.9562 90.6471
103.994 -6.33148 80.5729
97.5807 -29.9553 66.7899
0.766044 198.085 33.9959
26.4975 185.035 52.6226
49.3333 168.038 67.529
69.0895 147.785 78.7603
85.5825 124.962 86.3621
98.6282 100.258 90.3794
108.043 74.3602 90.8578
113.643 47.9571 87.8426
115.244 21.7366 81.379
112.662 -3.61334 71.5124
105.714 -27.4048 58.2882
0.819152 198.105 33.9296
28.3345 185.723 50.3296
52.7534 169.319 63.2598
73.8793 149.579 72.7814
91.5157 127.184 78.9559
105.466 102.818 81.8443
115.533 77.1652 81.508
121.521 50.9075 78.0081
123.233 24.7285 71.406
120.473 -0.688454 61.7628
113.043 -24.6603 49.1399
0.866025 198.126 33.8592
29.9558 186.454 47.8919
55.772 170.681 58.7213
78.1068 151.485 66.4254
96.7524 129.546 71.0826
111.501 105.54 72.7709
122.144 80.1471 71.5684
128.475 54.0439 67.5534
130.285 27.9091 60.804
127.366 2.42091 51.3983
119.512 -21.7427 39.4146
0.906308 198.149 33.785
31.3492 187.223 45.3281
58.3662 172.113 53.948
81.7399 153.491 59.7407
101.253 132.03 62.8021
116.687 108.403 63.2281
127.826 83.2832 61.1148
134.451 57.3425 56.5579
136.345 31.2542 49.6536
133.291 5.69108 40.4977
125.07 -18.6742 29.1862
0.939693 198.172 33.7078
32.504 188.024 42.6578
60.5162 173.604 48.9764
84.7509 155.58 52.7781
104.982 134.618 54.1774
120.985 111.385 53.2888
132.534 86.5496 50.2266
139.403 60.7783 45.1055
141.367 34.7384 38.0398
138.201 9.09717 29.1441
129.678 -15.4781 18.5328
0.965926 198.196 33.6282
33.4114 188.851 39.9013
62.2056 175.144 43.8443
87.1169 157.736 45.5907
107.913 137.289 45.2742
124.363 114.463 43.0284
136.234 89.9215 38.9868
143.295 64.325 33.2831
145.314 38.3351 26.0509
142.059 12.6133 17.4237
133.298 -12.1789 7.53525
0.984808 198.22 33.5466
34.0645 189.698 37.0795
63.4216 176.72 38.5906
88.8198 159.943 38.2331
110.023 140.023 36.1602
126.794 117.614 32.5251
138.897 93.3733 27.4809
146.096 67.9557 21.1809
148.154 42.0169 13.7782
144.836 16.2126 5.42593
135.903 -8.8015 -3.72264
0.996195 198.245 33.4637
34.4584 190.557 34.2139
64.1549 178.321 33.2554
89.8468 162.185 30.7613
111.295 142.799 26.9048
128.26 120.814 21.8588
140.503 96.8786 15.7965
147.785 71.6427 8.89088
149.868 45.7558 1.31501
146.51 19.8678 -6.75804
137.475 -5.37173 -15.1552
4 0 1 12 11 
4 1 2 13 12 
4 2 3 14 13 
4 3 4 15 14 
4 4 5 16 15 
4 5 6 17 16 
4 6 7 18 17 
4 7 8 19 18 
4 8 9 20 19 
4 9 10 21 20 
4 11 12 23 22 
4 12 13 24 23 
4 13 14 25 24 
4 14 15 26 25 
4 15 16 27 26 
4 16 17 28 27 
4 17 18 29 28 
4 18 19 30 29 
4 19 20 31 30 
4 20 21 32 31 
4 22 23 34 33 
4 23 24 35 34 
4 24 25 36 35 
4 25 26 37 36 
4 26 27 38 37 
4 27 28 39 38 
4 28 29 40 39 
4 29 30 41 40 
4 30 31 42 41 
4 31 32 43 42 
4 33 34 45 44 
4 34 35 46 45 
4 35 36 47 46 
4 36 37 48 47 
4 37 38 49 48 
4 38 39 50 49 
4 39 40 51 50 
4 40 41 52 51 
4 41 42 53 52 
4 42 43 54 53 
4 44 45 56 55 
4 45 46 57 56 
4 46 47 58 57 
4 47 48 59 58 
4 48 49 60 59 
4 49 50 61 60 
4 50 51 62 61 
4 51 52 63 62 
4 52 53 64 63 
4 53 54 65 64 
4 55 56 67 66 
4 56 57 68 67 
4 57 58 69 68 
4 58 59 70 69 
4 59 60 71 70 
4 60 61 72 71 
4 61 62 73 72 
4 62 63 74 73 
4 63 64 75 74 
4 64 65 76 75 
4 66 67 78 77 
4 67 68 79 78 
4 68 69 80 79 
4 69 70 81 80 
4 70 71 82 81 
4 71 72 83 82 
4 72 73 84 83 
4 73 74 85 84 
4 74 75 86 85 
4 75 76 87 86 
4 77 78 89 88 
4 78 79 90 89 
4 79 80 91 90 
4 80 81 92 91 
4 81 82 93 92 
4 82 83 94 93 
4 83 84 95 94 
4 84 85 96 95 
4 85 86 97 96 
4 86 87 98 97 
4 88 89 100 99 
4 89 90 101 100 
4 90 91 102 101 
4 91 92 103 102 
4 92 93 104 103 
4 93 94 105 104 
4 94 95 106 105 
4 95 96 107 106 
4 96 97 108 107 
4 97 98 109 108 
4 99 100 111 110 
4 100 101 112 111 
4 101 102 113 112 
4 102 103 114 113 
4 103 104 115 114 
4 104 105 116 115 
4 105 106 117 116 
4 106 107 118 117 
4 107 108 119 118 
4 108 109 120 119 
4 110 111 122 121 
4 111 112 123 122 
4 112 113 124 123 
4 113 114 125 124 
4 114 115 126 125 
4 115 116 127 126 
4 116 117 128 127 
4 117 118 129 128 
4 118 119 130 129 
4 119 120 131 130 
4 121 122 133 132 
4 122 123 134 133 
4 123 124 135 134 
4 124 125 136 135 
4 125 126 137 136 
4 126 127 138 137 
4 127 128 139 138 
4 128 129 140 139 
4 129 130 141 140 
4 130 131 142 141 
4 132 133 144 143 
4 133 134 145 144 
4 134 135 146 145 
4 135 136 147 146 
4 136 137 148 147 
4 137 138 149 148 
4 138 139 150 149 
4 139 140 151 150 
4 140 141 152 151 
4 141 142 153 152 
4 143 144 155 154 
4 144 145 156 155 
4 145 146 157 156 
4 146 147 158 157 
4 147 148 159 158 
4 148 149 160 159 
4 149 150 161 160 
4 150 151 162 161 
4 151 152 163 162 
4 152 153 164 163 
4 154 155 166 165 
4 155 156 167 166 
4 156 157 168 167 
4 157 158 169 168 
4 158 159 170 169 
4 159 160 171 170 
4 160 161 172 171 
4 161 162 173 172 
4 162 163 174 173 
4 163 164 175 174 
4 165 166 177 176 
4 166 167 178 177 
4 167 168 179 178 
4 168 169 180 179 
4 169 170 181 180 
4 170 171 182 181 
4 171 172 183 182 
4 172 173 184 183 
4 173 174 185 184 
4 174 175 186 185 
4 176 177 188 187 
4 177 178 189 188 
4 178 179 190 189 
4 179 180 191 190 
4 180 181 192 191 
4 181 182 193 192 
4 182 183 194 193 
4 183 184 195 194 
4 184 185 196 195 
4 185 186 197 196 
4 187 188 199 198 
4 188 189 200 199 
4 189 190 201 200 
4 190 191 202 201 
4 191 192 203 202 
4 192 193 204 203 
4 193 194 205 204 
4 194 195 206 205 
4 195 196 207 206 
4 196 197 208 207 
4 198 199 210 209 
4 199 200 211 210 
4 200 201 212 211 
4 201 202 213 212 
4 202 203 214 213 
4 203 204 215 214 
4 204 205 216 215 
4 205 206 217 216 
4 206 207 218 217 
4 207 208 219 218 
4 209 210 221 220 
4 210 211 222 221 
4 211 212 223 222 
4 212 213 224 223 
4 213 214 225 224 
4 214 215 226 225 
4 215 216 227 226 
4 216 217 228 227 
4 217 218 229 228 
4 218 219 230 229 
4 220 221 232 231 
4 221 222 233 232 
4 222 223 234 233 
4 223 224 235 234 
4 224 225 236 235 
4 225 226 237 236 
4 226 227 238 237 
4 227 228 239 238 
4 228 229 240 239 
4 229 230 241 240 
4 231 232 243 242 
4 232 233 244 243 
4 233 234 245 244 
4 234 235 246 245 
4 235 236 247 246 
4 236 237 248 247 
4 237 238 249 248 
4 238 239 250 249 
4 239 240 251 250 
4 240 241 252 251 
4 242 243 254 253 
4 243 244 255 254 
4 244 245 256 255 
4 245 246 257 256 
4 246 247 258 257 
4 247 248 259 258 
4 248 249 260 259 
4 249 250 261 260 
4 250 251 262 261 
4 251 252 263 262 
4 253 254 265 264 
4 254 255 266 265 
4 255 256 267 266 
4 256 257 268 267 
4 257 258 269 268 
4 258 259 270 269 
4 259 260 271 270 
4 260 261 272 271 
4 261 262 273 272 
4 262 263 274 273 
4 264 265 276 275 
4 265 266 277 276 
4 266 267 278 277 
4 267 268 279 278 
4 268 269 280 279 
4 269 270 281 280 
4 270 271 282 281 
4 271 272 283 282 
4 272 273 284 283 
4 273 274 285 284 
4 275 276 287 286 
4 276 277 288 287 
4 277 278 289 288 
4 278 279 290 289 
4 279 280 291 290 
4 280 281 292 291 
4 281 282 293 292 
4 282 283 294 293 
4 283 284 295 294 
4 284 285 296 295 
4 286 287 298 297 
4 287 288 299 298 
4 288 289 300 299 
4 289 290 301 300 
4 290 291 302 301 
4 291 292 303 302 
4 292 293 304 303 
4 293 294 305 304 
4 294 295 306 305 
4 295 296 307 306 
4 297 298 309 308 
4 298 299 310 309 
4 299 300 311 310 
4 300 301 312 311 
4 301 302 313 312 
4 302 303 314 313 
4 303 304 315 314 
4 304 305 316 315 
4 305 306 317 316 
4 306 307 318 317 
4 308 309 320 319 
4 309 310 321 320 
4 310 311 322 321 
4 311 312 323 322 
4 312 313 324 323 
4 313 314 325 324 
4 314 315 326 325 
4 315 316 327 326 
4 316 317 328 327 
4 317 318 329 328 
4 319 320 331 330 
4 320 321 332 331 
4 321 322 333 332 
4 322 323 334 333 
4 323 324 335 334 
4 324 325 336 335 
4 325 326 337 336 
4 326 327 338 337 
4 327 328 339 338 
4 328 329 340 339 
4 330 331 342 341 
4 331 332 343 342 
4 332 333 344 343 
4 333 334 345 344 
4 334 335 346 345 
4 335 336 347 346 
4 336 337 348 347 
4 337 338 349 348 
4 338 339 350 349 
4 339 340 351 350 
4 341 342 353 352 
4 342 343 354 353 
4 343 344 355 354 
4 344 345 356 355 
4 345 346 357 356 
4 346 347 358 357 
4 347 348 359 358 
4 348 349 360 359 
4 349 350 361 360 
4 350 351 362 361 
4 352 353 364 363 
4 353 354 365 364 
4 354 355 366 365 
4 355 356 367 366 
4 356 357 368 367 
4 357 358 369 368 
4 358 359 370 369 
4 359 360 371 370 
4 360 361 372 371 
4 361 362 373 372 
4 363 364 375 374 
4 364 365 376 375 
4 365 366 377 376 
4 366 367 378 377 
4 367 368 379 378 
4 368 369 380 379 
4 369 370 381 380 
4 370 371 382 381 
4 371 372 383 382 
4 372 373 384 383 
4 374 375 386 385 
4 375 376 387 386 
4 376 377 388 387 
4 377 378 389 388 
4 378 379 390 389 
4 379 380 391 390 
4 380 381 392 391 
4 381 382 393 392 
4 382 383 394 393 
4 383 384 395 394 
4 385 386 397 396 
4 386 387 398 397 
4 387 388 399 398 
4 388 389 400 399 
4 389 390 401 400 
4 390 391 402 401 
4 391 392 403 402 
4 392 393 404 403 
4 393 394 405 404 
4 394 395 406 405 
4 396 397 408 407 
4 397 398 409 408 
4 398 399 410 409 
4 399 400 411 410 
4 400 401 412 411 
4 401 402 413 412 
4 402 403 414 413 
4 403 404 415 414 
4 404 405 416 415 
4 405 406 417 416 
4 407 408 419 418 
4 408 409 420 419 
4 409 410 421 420 
4 410 411 422 421 
4 411 412 423 422 
4 412 413 424 423 
4 413 414 425 424 
4 414 415 426 425 
4 415 416 427 426 
4 416 417 428 427 
4 418 419 430 429 
4 419 420 431 430 
4 420 421 432 431 
4 421 422 433 432 
4 422 423 434 433 
4 423 424 435 434 
4 424 425 436 435 
4 425 426 437 436 
4 426 427 438 437 
4 427 428 439 438 
4 429 430 441 440 
4 430 431 442 441 
4 431 432 443 442 
4 432 433 444 443 
4 433 434 445 444 
4 434 435 446 445 
4 435 436 447 446 
4 436 437 448 447 
4 437 438 449 448 
4 438 439 450 449 
4 440 441 452 451 
4 441 442 453 452 
4 442 443 454 453 
4 443 444 455 454 
4 444 445 456 455 
4 445 446 457 456 
4 446 447 458 457 
4 447 448 459 458 
4 448 449 460 459 
4 449 450 461 460 
4 451 452 463 462 
4 452 453 464 463 
4 453 454 465 464 
4 454 455 466 465 
4 455 456 467 466 
4 456 457 468 467 
4 457 458 469 468 
4 458 459 470 469 
4 459 460 471 470 
4 460 461 472 471 
4 462 463 474 473 
4 463 464 475 474 
4 464 465 476 475 
4 465 466 477 476 
4 466 467 478 477 
4 467 468 479 478 
4 468 469 480 479 
4 469 470 481 480 
4 470 471 482 481 
4 471 472 483 482 
4 473 474 485 484 
4 474 475 486 485 
4 475 476 487 486 
4 476 477 488 487 
4 477 478 489 488 
4 478 479 490 489 
4 479 480 491 490 
4 480 481 492 491 
4 481 482 493 492 
4 482 483 494 493 
4 484 485 496 495 
4 485 486 497 496 
4 486 487 498 497 
4 487 488 499 498 
4 488 489 500 499 
4 489 490 501 500 
4 490 491 502 501 
4 491 492 503 502 
4 492 493 504 503 
4 493 494 505 504 
4 495 496 507 506 
4 496 497 508 507 
4 497 498 509 508 
4 498 499 510 509 
4 499 500 511 510 
4 500 501 512 511 
4 501 502 513 512 
4 502 503 514 513 
4 503 504 515 514 
4 504 505 516 515 
4 506 507 518 517 
4 507 508 519 518 
4 508 509 520 519 
4 509 510 521 520 
4 510 511 522 521 
4 511 512 523 522 
4 512 513 524 523 
4 513 514 525 524 
4 514 515 526 525 
4 515 516 527 526 
4 517 518 529 528 
4 518 519 530 529 
4 519 520 531 530 
4 520 521 532 531 
4 521 522 533 532 
4 522 523 534 533 
4 523 524 535 534 
4 524 525 536 535 
4 525 526 537 536 
4 526 527 538 537 
4 528 529 540 539 
4 529 530 541 540 
4 530 531 542 541 
4 531 532 543 542 
4 532 533 544 543 
4 533 534 545 544 
4 534 535 546 545 
4 535 536 547 546 
4 536 537 548 547 
4 537 538 549 548 
4 539 540 551 550 
4 540 541 552 551 
4 541 542 553 552 
4 542 543 554 553 
4 543 544 555 554 
4 544 545 556 555 
4 545 546 557 556 
4 546 547 558 557 
4 547 548 559 558 
4 548 549 560 559 
4 550 551 562 561 
4 551 552 563 562 
4 552 553 564 563 
4 553 554 565 564 
4 554 555 566 565 
4 555 556 567 566 
4 556 557 568 567 
4 557 558 569 568 
4 558 559 570 569 
4 559 560 571 570 
4 561 562 573 572 
4 562 563 574 573 
4 563 564 575 574 
4 564 565 576 575 
4 565 566 577 576 
4 566 567 578 577 
4 567 568 579 578 
4 568 569 580 579 
4 569 570 581 580 
4 570 571 582 581 
4 572 573 584 583 
4 573 574 585 584 
4 574 575 586 585 
4 575 576 587 586 
4 576 577 588 587 
4 577 578 589 588 
4 578 579 590 589 
4 579 580 591 590 
4 580 581 592 591 
4 581 582 593 592 
4 583 584 595 594 
4 584 585 596 595 
4 585 586 597 596 
4 586 587 598 597 
4 587 588 599 598 
4 588 589 600 599 
4 589 590 601 600 
4 590 591 602 601 
4 591 592 603 602 
4 592 593 604 603 
4 594 595 606 605 
4 595 596 607 606 
4 596 597 608 607 
4 597 598 609 608 
4 598 599 610 609 
4 599 600 611 610 
4 600 601 612 611 
4 601 602 613 612 
4 602 603 614 613 
4 603 604 615 614 
4 605 606 617 616 
4 606 607 618 617 
4 607 608 619 618 
4 608 609 620 619 
4 609 610 621 620 
4 610 611 622 621 
4 611 612 623 622 
4 612 613 624 623 
4 613 614 625 624 
4 614 615 626 625 
4 616 617 628 627 
4 617 618 629 628 
4 618 619 630 629 
4 619 620 631 630 
4 620 621 632 631 
4 621 622 633 632 
4 622 623 634 633 
4 623 624 635 634 
4 624 625 636 635 
4 625 626 637 636 
4 627 628 639 638 
4 628 629 640 639 
4 629 630 641 640 
4 630 631 642 641 
4 631 632 643 642 
4 632 633 644 643 
4 633 634 645 644 
4 634 635 646 645 
4 635 636 647 646 
4 636 637 648 647 
4 638 639 650 649 
4 639 640 651 650 
4 640 641 652 651 
4 641 642 653 652 
4 642 643 654 653 
4 643 644 655 654 
4 644 645 656 655 
4 645 646 657 656 
4 646 647 658 657 
4 647 648 659 658 
4 649 650 661 660 
4 650 651 662 661 
4 651 652 663 662 
4 652 653 664 663 
4 653 654 665 664 
4 654 655 666 665 
4 655 656 667 666 
4 656 657 668 667 
4 657 658 669 668 
4 658 659 670 669 
4 660 661 672 671 
4 661 662 673 672 
4 662 663 674 673 
4 663 664 675 674 
4 664 665 676 675 
4 665 666 677 676 
4 666 667 678 677 
4 667 668 679 678 
4 668 669 680 679 
4 669 670 681 680 
4 671 672 683 682 
4 672 673 684 683 
4 673 674 685 684 
4 674 675 686 685 
4 675 676 687 686 
4 676 677 688 687 
4 677 678 689 688 
4 678 679 690 689 
4 679 680 691 690 
4 680 681 692 691 
4 682 683 694 693 
4 683 684 695 694 
4 684 685 696 695 
4 685 686 697 696 
4 686 687 698 697 
4 687 688 699 698 
4 688 689 700 699 
4 689 690 701 700 
4 690 691 702 701 
4 691 692 703 702 
4 693 694 705 704 
4 694 695 706 705 
4 695 696 707 706 
4 696 697 708 707 
4 697 698 709 708 
4 698 699 710 709 
4 699 700 711 710 
4 700 701 712 711 
4 701 702 713 712 
4 702 703 714 713 
4 704 705 716 715 
4 705 706 717 716 
4 706 707 718 717 
4 707 708 719 718 
4 708 709 720 719 
4 709 710 721 720 
4 710 711 722 721 
4 711 712 723 722 
4 712 713 724 723 
4 713 714 725 724 
4 715 716 727 726 
4 716 717 728 727 
4 717 718 729 728 
4 718 719 730 729 
4 719 720 731 730 
4 720 721 732 731 
4 721 722 733 732 
4 722 723 734 733 
4 723 724 735 734 
4 724 725 736 735 
4 726 727 738 737 
4 727 728 739 738 
4 728 729 740 739 
4 729 730 741 740 
4 730 731 742 741 
4 731 732 743 742 
4 732 733 744 743 
4 733 734 745 744 
4 734 735 746 745 
4 735 736 747 746 
4 737 738 749 748 
4 738 739 750 749 
4 739 740 751 750 
4 740 741 752 751 
4 741 742 753 752 
4 742 743 754 753 
4 743 744 755 754 
4 744 745 756 755 
4 745 746 757 756 
4 746 747 758 757 
4 748 749 760 759 
4 749 750 761 760 
4 750 751 762 761 
4 751 752 763 762 
4 752 753 764 763 
4 753 754 765 764 
4 754 755 766 765 
4 755 756 767 766 
4 756 757 768 767 
4 757 758 769 768 
4 759 760 771 770 
4 760 761 772 771 
4 761 762 773 772 
4 762 763 774 773 
4 763 764 775 774 
4 764 765 776 775 
4 765 766 777 776 
4 766 767 778 777 
4 767 768 779 778 
4 768 769 780 779 
4 770 771 782 781 
4 771 772 783 782 
4 772 773 784 783 
4 773 774 785 784 
4 774 775 786 785 
4 775 776 787 786 
4 776 777 788 787 
4 777 778 789 788 
4 778 779 790 789 
4 779 780 791 790 
4 781 782 1 0 
4 782 783 2 1 
4 783 784 3 2 
4 784 785 4 3 
4 785 786 5 4 
4 786 787 6 5 
4 787 788 7 6 
4 788 789 8 7 
4 789 790 9 8 
4 790 791 10 9 
